<svg width="17px" height="16px" viewBox="0 0 17 16" version="1.1" xmlns="http://www.w3.org/2000/svg" xmlns:xlink="http://www.w3.org/1999/xlink">
    <g id="Page-1" stroke="none" stroke-width="1" fill-rule="evenodd">
        <g id="Desktop-HD" transform="translate(-1205.000000, -833.000000)" fill="#FCA311" fill-rule="nonzero">
            <g id="Recente-projecten" transform="translate(221.000000, 520.000000)">
                <g id="arrow-right-solid" transform="translate(984.000000, 313.000000)">
                    <path d="M7.16085493,1.07167392 L7.99534826,0.258300893 C8.34869229,-0.0861002977 8.92005709,-0.0861002977 9.26964213,0.258300893 L16.5770972,7.37714678 C16.9304413,7.72154797 16.9304413,8.27845203 16.5770972,8.61918937 L9.26964213,15.7416991 C8.91629811,16.0861003 8.34493331,16.0861003 7.99534826,15.7416991 L7.16085493,14.9283261 C6.80375193,14.580261 6.81126989,14.0123655 7.17589085,13.6716281 L11.7054605,9.46553698 L0.902154952,9.46553698 C0.40221075,9.46553698 0,9.07350584 0,8.58621479 L0,7.41378521 C0,6.92649416 0.40221075,6.53446302 0.902154952,6.53446302 L11.7054605,6.53446302 L7.17589085,2.32837188 C6.80751091,1.98763453 6.79999295,1.41973895 7.16085493,1.07167392 Z" id="Path"></path>
                </g>
            </g>
        </g>
    </g>
</svg>