
<svg viewBox="0 0 361 80" version="1.1" xmlns="http://www.w3.org/2000/svg" xmlns:xlink="http://www.w3.org/1999/xlink">
    <g id="Page-1" stroke="none" stroke-width="1" fill="none" fill-rule="evenodd">
        <g id="athlon-logo" transform="translate(0.530000, 0.970000)" fill-rule="nonzero">
            <g id="Group">
                <path d="M70.47,58.29 C74.97,67.62 79.3,77.49 79.3,77.49 L106.9,77.49 C102.59,70.15 95.8,56.6 89.15,42.86 C82.5992422,47.5978871 76.3597188,52.7518403 70.47,58.29" id="Path" fill="#004380"></path>
                <path d="M36.47,25.29 C32.87,33.9 31.14,38.23 27.41,46.68 C32.2849275,43.5003073 37.3437722,40.611924 42.56,38.03 L51.23,16.27 L58.15,31.43 C65.5511165,28.8059133 73.1857052,26.8939176 80.95,25.72 C74.16,11.38 68.95,0 68.95,0 L42.3,0 C43.36,2.61 42.38,7.49 42.38,7.49 C41.64,13.22 36.47,25.35 36.47,25.35" id="Path" fill="#004380"></path>
                <path d="M105.19,24.8 C105.19,24.8 50.47,22.42 0,77.54 L18.67,77.54 C34.56,60.87 68.54,29.8 105.19,24.8" id="Path" fill="#FFCC00"></path>
                <path d="M123.33,25.03 C123.33,25.03 72.95,22.46 26.61,77.58 L45.18,77.58 C59.9,60.58 91.18,29.08 123.33,25.03" id="Path" fill="#FFCC00"></path>
                <path d="M151.11,30.03 L111.72,30.03 C106.254862,32.3655304 100.981928,35.1273839 95.95,38.29 C98.38,38.08 114.34,37.82 116.59,37.86 L116.59,67.21 C116.419269,70.6738062 116.01165,74.1218645 115.37,77.53 L133.18,77.53 C132.502556,74.0662649 132.08804,70.5562553 131.94,67.03 L131.94,37.82 C134.2,37.82 151.94,38.61 151.94,38.61 L151.11,30.03 Z" id="Path" fill="#004380"></path>
                <path d="M171.54,40.27 C171.743261,36.8228346 172.228212,33.3980773 172.99,30.03 L154.88,30.03 C155.648454,33.4005662 156.136785,36.8289217 156.34,40.28 L156.34,67.2 C156.136427,70.6735401 155.651504,74.1248514 154.89,77.52 L172.99,77.52 C172.229873,74.1246008 171.744966,70.6734015 171.54,67.2 L171.54,55.86 L186.47,55.86 L186.47,67.19 C186.265034,70.6634015 185.780127,74.1146008 185.02,77.51 L203.12,77.51 C202.358496,74.1148514 201.873573,70.6635401 201.67,67.19 L201.67,40.27 C201.877052,36.8219973 202.368725,33.3970058 203.14,30.03 L185.03,30.03 C185.788466,33.3983488 186.270073,36.8231067 186.47,40.27 L186.47,48.57 L171.54,48.57 L171.54,40.27 Z" id="Path" fill="#004380"></path>
                <path d="M226.69,68.03 C229.547385,68.6780741 232.470137,68.993503 235.4,68.97 C239.442452,69.0473993 243.477399,68.5901053 247.4,67.61 L247.34,77.49 L210.34,77.49 C210.939158,74.1116242 211.316631,70.6976656 211.47,67.27 L211.47,40.35 C211.31611,36.889244 210.938656,33.4420559 210.34,30.03 L228.15,30.03 C227.379788,33.4475372 226.891481,36.9225448 226.69,40.42 L226.69,68.03 Z" id="Path" fill="#004380"></path>
                <path d="M278.03,72.67 C270.24,72.67 263.93,63.9 263.93,53.08 C263.93,42.26 270.24,33.49 278.03,33.49 C285.82,33.49 292.13,42.26 292.13,53.08 C292.13,63.9 285.82,72.67 278.03,72.67 M278.57,27.84 C261.73,27.84 247.38,37.38 247.38,53.01 C247.38,68.64 260.57,78.25 277.58,78.25 C294.42,78.25 308.77,68.93 308.77,52.93 C308.77,36.93 296,27.83 278.57,27.83" id="Shape" fill="#004380"></path>
                <path d="M359.21,39.84 C359.286249,36.5576211 359.550012,33.2822816 360,30.03 L349.41,30.03 C350.071686,33.2618451 350.463039,36.5431878 350.58,39.84 L350.58,59.18 L350.33,59.18 L325.11,30.03 L311.22,30.03 C311.814371,34.0207219 312.14841,38.0458938 312.22,42.08 L312.22,68.43 C312.14686,71.4829972 311.812304,74.5241165 311.22,77.52 L322.22,77.52 C321.641513,74.5220108 321.307084,71.4820489 321.22,68.43 L321.22,47.93 L321.47,47.93 L346.7,77.52 L359.14,77.52 L359.21,39.84 Z" id="Path" fill="#004380"></path>
            </g>
        </g>
    </g>
</svg>